<svg width="32" height="32" viewBox="0 0 32 32" fill="none" xmlns="http://www.w3.org/2000/svg">
<rect width="32" height="32" rx="16" fill="#0077B5"/>
<path fill-rule="evenodd" clip-rule="evenodd" d="M10.9716 12.7671V25.3H6.91546V12.7671H10.9716ZM11.2305 8.86995C11.2305 9.48995 11.0579 10.0214 10.6264 10.42C10.1949 10.8185 9.63395 11.04 8.94354 11.04C8.25313 11.04 7.69217 10.8185 7.30382 10.42C6.87231 10.0214 6.69971 9.48995 6.69971 8.86995C6.69971 8.24995 6.87231 7.71852 7.30382 7.31995C7.73532 6.92138 8.29628 6.69995 8.98669 6.69995C9.6771 6.69995 10.1949 6.92138 10.6264 7.31995C11.0148 7.71852 11.2305 8.24995 11.2305 8.86995ZM25.5997 18.0814V25.3H21.5435V18.5685C21.5435 17.6828 21.4141 17.0185 21.0689 16.4871C20.7237 16 20.2059 15.7342 19.5155 15.7342C18.9977 15.7342 18.5661 15.9114 18.2209 16.1771C17.8326 16.4871 17.5737 16.8414 17.4011 17.2842C17.3148 17.5057 17.2716 17.86 17.2716 18.3028V25.3H13.2155C13.2586 21.9342 13.2586 19.1885 13.2586 17.1071C13.2586 15.0257 13.2586 13.7414 13.2586 13.3428L13.2155 12.7671H17.2716V14.5828C17.4442 14.3171 17.5737 14.0514 17.7463 13.8742C17.9189 13.6528 18.1778 13.4314 18.4798 13.21C18.7387 12.9885 19.1271 12.7671 19.5155 12.6342C19.947 12.5014 20.4216 12.4571 20.9394 12.4571C22.3634 12.4571 23.4853 12.9442 24.3483 13.8742C25.2114 14.8485 25.5997 16.2657 25.5997 18.0814Z" fill="white"/>
</svg>
