<svg width="32" height="32" viewBox="0 0 32 32" fill="none" xmlns="http://www.w3.org/2000/svg">
<rect width="32" height="32" rx="16" fill="#FF0000"/>
<path fill-rule="evenodd" clip-rule="evenodd" d="M20.3394 15.9999C20.3394 15.7359 20.2251 15.5474 19.9966 15.4343L14.436 11.9654C14.2075 11.8146 13.979 11.8146 13.7124 11.9654C13.4839 12.0785 13.3696 12.2671 13.3696 12.5687V19.431C13.3696 19.7326 13.4839 19.9212 13.7124 20.0343C13.8267 20.1097 13.9409 20.1474 14.0552 20.1474C14.2075 20.1474 14.3218 20.1097 14.436 20.0343L19.9966 16.5654C20.2251 16.4523 20.3394 16.2638 20.3394 15.9999ZM25.8999 15.9999C25.8999 16.6785 25.8999 17.2441 25.8999 17.6212C25.8999 17.9982 25.8618 18.4884 25.7856 19.0917C25.7476 19.6949 25.6714 20.2228 25.5571 20.6753C25.4429 21.2031 25.1763 21.6556 24.7954 21.9949C24.4146 22.372 23.9575 22.5605 23.4624 22.6359C21.8247 22.7867 19.4253 22.8999 16.1499 22.8999C12.8745 22.8999 10.4751 22.7867 8.8374 22.6359C8.34229 22.5605 7.88525 22.372 7.50439 21.9949C7.12354 21.6556 6.85693 21.2031 6.74268 20.6753C6.62842 20.2228 6.55225 19.6949 6.51416 19.0917C6.43799 18.4884 6.3999 17.9982 6.3999 17.6212C6.3999 17.2441 6.3999 16.6785 6.3999 15.9999C6.3999 15.3212 6.3999 14.7556 6.3999 14.3785C6.3999 14.0015 6.43799 13.5113 6.51416 12.9081C6.55225 12.3048 6.62842 11.7769 6.74268 11.3244C6.85693 10.7966 7.12354 10.3441 7.50439 10.0048C7.88525 9.62772 8.34229 9.4392 8.8374 9.36379C10.4751 9.21297 12.8745 9.09985 16.1499 9.09985C19.4253 9.09985 21.8247 9.21297 23.4624 9.36379C23.9575 9.4392 24.4146 9.62772 24.7954 10.0048C25.1763 10.3441 25.4429 10.7966 25.5571 11.3244C25.6714 11.7769 25.7476 12.3048 25.7856 12.9081C25.8618 13.5113 25.8999 14.0015 25.8999 14.3785C25.8999 14.7556 25.8999 15.3212 25.8999 15.9999Z" fill="white"/>
</svg>
